<?xml version="1.0" ?><svg fill="none" height="96" viewBox="0 0 96 96" width="96" xmlns="http://www.w3.org/2000/svg"><path clip-rule="evenodd" d="M63.2448 48.488C63.2448 46.8312 64.588 45.488 66.2448 45.488C74.0834 45.488 80.4379 51.8425 80.4379 59.6811C80.4379 67.5197 74.0834 73.8741 66.2448 73.8741C64.588 73.8741 63.2448 72.531 63.2448 70.8741C63.2448 69.2173 64.588 67.8741 66.2448 67.8741C70.7697 67.8741 74.4379 64.206 74.4379 59.6811C74.4379 55.1562 70.7697 51.488 66.2448 51.488C64.588 51.488 63.2448 50.1449 63.2448 48.488Z" fill="#E88C20" fill-rule="evenodd"/><path clip-rule="evenodd" d="M75.4376 61.8001C75.9622 61.9728 76.2476 62.538 76.0749 63.0626C74.2761 68.5281 69.2423 70.468 65.8209 70.9286C65.2736 71.0023 64.7701 70.6183 64.6965 70.0709C64.6228 69.5236 65.0068 69.0201 65.5541 68.9465C68.6327 68.532 72.7239 66.8469 74.1751 62.4374C74.3478 61.9128 74.913 61.6275 75.4376 61.8001Z" fill="#B26A16" fill-rule="evenodd"/><path clip-rule="evenodd" d="M68.9582 47.99C69.1455 47.4705 69.7186 47.2012 70.2381 47.3886C71.9701 48.0133 75.8315 50.2232 77.8677 54.2689C78.116 54.7622 77.9173 55.3634 77.424 55.6117C76.9307 55.86 76.3295 55.6614 76.0812 55.168C74.3421 51.7126 70.9716 49.7793 69.5596 49.27C69.04 49.0826 68.7708 48.5096 68.9582 47.99Z" fill="#FDB055" fill-rule="evenodd"/><path d="M18.5622 38.623C18.5622 38.623 23.2593 44.2627 42.0478 44.2627C60.8363 44.2627 65.5334 38.623 65.5334 38.623V74.4186C65.5334 78.5876 63.8395 82.6365 60.0125 84.2902C56.2685 85.908 50.4497 87.5 42.0478 87.5C33.6459 87.5 27.8271 85.908 24.0831 84.2902C20.256 82.6365 18.5622 78.5876 18.5622 74.4186V38.623Z" fill="#EF2F15"/><path clip-rule="evenodd" d="M17.8816 36.7424C18.661 36.4603 19.5321 36.6885 20.0732 37.3128C20.0734 37.313 20.0737 37.3133 20.0739 37.3135C20.0842 37.3244 20.114 37.3554 20.1657 37.4036C20.2689 37.5 20.4603 37.6665 20.7587 37.8815C21.3544 38.3106 22.3846 38.9386 24.0024 39.586C27.24 40.8818 32.8495 42.2627 42.0478 42.2627C51.246 42.2627 56.8555 40.8818 60.0931 39.586C61.711 38.9386 62.7411 38.3106 63.3369 37.8815C63.6352 37.6665 63.8266 37.5 63.9298 37.4036C63.9815 37.3554 64.0113 37.3244 64.0217 37.3135C64.0219 37.3133 64.0221 37.313 64.0224 37.3128C64.5635 36.6885 65.4346 36.4603 66.214 36.7424C67.0059 37.029 67.5334 37.7809 67.5334 38.623V74.4185C67.5334 79.0306 65.6436 84.0356 60.8058 86.1261C56.7997 87.8572 50.7095 89.5 42.0478 89.5C33.386 89.5 27.2959 87.8572 23.2897 86.1261C18.452 84.0356 16.5622 79.0306 16.5622 74.4185V38.623C16.5622 37.7809 17.0897 37.029 17.8816 36.7424ZM63.5334 40.1366C64.99 39.2755 65.5334 38.623 65.5334 38.623V74.4185C65.5334 78.5876 63.8395 82.6364 60.0125 84.2901C56.2685 85.908 50.4497 87.5 42.0478 87.5C33.6459 87.5 27.8271 85.908 24.0831 84.2901C20.256 82.6364 18.5622 78.5876 18.5622 74.4185V38.623C18.5622 38.623 19.1056 39.2755 20.5622 40.1366C23.3878 41.8071 29.65 44.2627 42.0478 44.2627C54.4455 44.2627 60.7077 41.8071 63.5334 40.1366Z" fill="#8E1707" fill-rule="evenodd"/><path d="M65.5334 74.8276V39.9683C65.5334 39.9683 63.726 42.6794 57.5452 44.2529L57.5879 85.1306C58.9804 84.673 60.1692 84.149 61.1702 83.619C64.3191 81.9519 65.5334 78.3906 65.5334 74.8276Z" fill="#CF2109"/><path d="M59.6695 81.4982C59.6695 82.4126 58.9283 83.1539 58.0139 83.1539C57.0995 83.1539 56.3582 82.4126 56.3582 81.4982C56.3582 80.5838 57.0995 79.8425 58.0139 79.8425C58.9283 79.8425 59.6695 80.5838 59.6695 81.4982Z" fill="#9F1603"/><path d="M62.9119 79.3596C62.9119 80.0454 62.3559 80.6013 61.6701 80.6013C60.9843 80.6013 60.4284 80.0454 60.4284 79.3596C60.4284 78.6738 60.9843 78.1178 61.6701 78.1178C62.3559 78.1178 62.9119 78.6738 62.9119 79.3596Z" fill="#9F1603"/><path d="M57.8759 76.9451C57.8759 77.6309 57.32 78.1869 56.6342 78.1869C55.9483 78.1869 55.3924 77.6309 55.3924 76.9451C55.3924 76.2593 55.9483 75.7034 56.6342 75.7034C57.32 75.7034 57.8759 76.2593 57.8759 76.9451Z" fill="#9F1603"/><path d="M62.8429 71.1502C62.8429 71.836 62.287 72.392 61.6012 72.392C60.9154 72.392 60.3594 71.836 60.3594 71.1502C60.3594 70.4644 60.9154 69.9084 61.6012 69.9084C62.287 69.9084 62.8429 70.4644 62.8429 71.1502Z" fill="#9F1603"/><path d="M59.5316 72.3919C59.5316 72.8491 59.1609 73.2198 58.7037 73.2198C58.2465 73.2198 57.8759 72.8491 57.8759 72.3919C57.8759 71.9347 58.2465 71.5641 58.7037 71.5641C59.1609 71.5641 59.5316 71.9347 59.5316 72.3919Z" fill="#9F1603"/><path d="M62.8429 67.4249C62.8429 67.8821 62.4723 68.2527 62.0151 68.2527C61.5579 68.2527 61.1872 67.8821 61.1872 67.4249C61.1872 66.9677 61.5579 66.597 62.0151 66.597C62.4723 66.597 62.8429 66.9677 62.8429 67.4249Z" fill="#9F1603"/><path d="M61.9461 75.2204C61.9461 75.9062 61.3901 76.4622 60.7043 76.4622C60.0185 76.4622 59.4626 75.9062 59.4626 75.2204C59.4626 74.5346 60.0185 73.9786 60.7043 73.9786C61.3901 73.9786 61.9461 74.5346 61.9461 75.2204Z" fill="#9F1603"/><path d="M60.3594 67.8388C60.3594 68.5246 59.8034 69.0806 59.1176 69.0806C58.4318 69.0806 57.8759 68.5246 57.8759 67.8388C57.8759 67.153 58.4318 66.597 59.1176 66.597C59.8034 66.597 60.3594 67.153 60.3594 67.8388Z" fill="#9F1603"/><path d="M62.0151 64.1136C62.0151 64.5708 61.6444 64.9414 61.1872 64.9414C60.73 64.9414 60.3594 64.5708 60.3594 64.1136C60.3594 63.6564 60.73 63.2858 61.1872 63.2858C61.6444 63.2858 62.0151 63.6564 62.0151 64.1136Z" fill="#9F1603"/><path d="M54.6335 82.2569C54.6335 82.7141 54.2629 83.0848 53.8057 83.0848C53.3485 83.0848 52.9778 82.7141 52.9778 82.2569C52.9778 81.7997 53.3485 81.4291 53.8057 81.4291C54.2629 81.4291 54.6335 81.7997 54.6335 82.2569Z" fill="#9F1603"/><path clip-rule="evenodd" d="M24.0413 48.2142C25.6982 48.2142 27.0413 49.5574 27.0413 51.2142V65.5634C27.0413 67.2203 25.6982 68.5634 24.0413 68.5634C22.3845 68.5634 21.0413 67.2203 21.0413 65.5634V51.2142C21.0413 49.5574 22.3845 48.2142 24.0413 48.2142Z" fill="#FF6853" fill-rule="evenodd"/><path clip-rule="evenodd" d="M23.1445 49.7142C23.9729 49.7142 24.6445 50.3858 24.6445 51.2142V54.8015C24.6445 55.63 23.9729 56.3015 23.1445 56.3015C22.3161 56.3015 21.6445 55.63 21.6445 54.8015V51.2142C21.6445 50.3858 22.3161 49.7142 23.1445 49.7142Z" fill="white" fill-rule="evenodd"/><path d="M65.5334 38.1746C65.5334 42.137 55.0185 45.3492 42.0478 45.3492C29.077 45.3492 18.5622 42.137 18.5622 38.1746C18.5622 34.2122 29.077 31 42.0478 31C55.0185 31 65.5334 34.2122 65.5334 38.1746Z" fill="#F9CC2D"/><path clip-rule="evenodd" d="M59.2389 45.1606C54.752 46.5313 48.6744 47.3492 42.0478 47.3492C35.4211 47.3492 29.3436 46.5313 24.8566 45.1606C22.6255 44.479 20.6743 43.6269 19.2368 42.5886C17.8453 41.5836 16.5622 40.1182 16.5622 38.1746C16.5622 36.231 17.8453 34.7656 19.2368 33.7606C20.6743 32.7223 22.6255 31.8702 24.8566 31.1887C29.3436 29.8179 35.4211 29 42.0478 29C48.6744 29 54.752 29.8179 59.2389 31.1887C61.4701 31.8702 63.4213 32.7223 64.8588 33.7606C66.2503 34.7656 67.5334 36.231 67.5334 38.1746C67.5334 40.1182 66.2503 41.5836 64.8588 42.5886C63.4213 43.6269 61.4701 44.479 59.2389 45.1606ZM42.0478 45.3492C55.0185 45.3492 65.5334 42.137 65.5334 38.1746C65.5334 34.2122 55.0185 31 42.0478 31C29.077 31 18.5622 34.2122 18.5622 38.1746C18.5622 42.137 29.077 45.3492 42.0478 45.3492Z" fill="#8E1707" fill-rule="evenodd"/><path clip-rule="evenodd" d="M54.6981 34.1045C54.7784 33.5581 55.2865 33.1803 55.8329 33.2607C56.8212 33.406 58.2183 33.9174 59.4828 34.4441C60.7786 34.9838 62.0482 35.5883 62.827 35.983C63.3196 36.2327 63.5166 36.8345 63.2669 37.3271C63.0172 37.8197 62.4154 38.0167 61.9228 37.767C61.1808 37.3909 59.9566 36.8079 58.7139 36.2903C57.4399 35.7597 56.2536 35.344 55.5419 35.2394C54.9955 35.159 54.6177 34.6509 54.6981 34.1045Z" fill="#FFF6A6" fill-rule="evenodd"/><path d="M26.8623 32.7013C21.7846 34.0173 18.5622 35.981 18.5622 38.1746C18.5622 41.1123 24.3418 43.6376 32.6169 44.7473C31.132 42.1949 27.9022 36.2124 26.8623 32.7013Z" fill="#E79E11"/><path clip-rule="evenodd" d="M20.2693 40.8651C23.7533 38.2358 32.1915 36.381 42.0478 36.381C51.904 36.381 60.3422 38.2358 63.8262 40.8651C60.3422 43.4944 51.904 45.3492 42.0478 45.3492C32.1915 45.3492 23.7533 43.4944 20.2693 40.8651Z" fill="#4F2201" fill-rule="evenodd"/><path clip-rule="evenodd" d="M44.0622 40C44.0622 39.4477 44.5099 39 45.0622 39C49.1767 39 54.5978 40.0204 56.787 40.5256C57.3252 40.6498 57.6607 41.1867 57.5366 41.7249C57.4124 42.263 56.8754 42.5986 56.3373 42.4744C54.1932 41.9796 48.9476 41 45.0622 41C44.5099 41 44.0622 40.5523 44.0622 40Z" fill="#B75209" fill-rule="evenodd"/><path clip-rule="evenodd" d="M46.8122 44C47.3644 44 47.8122 44.4477 47.8122 45V55C47.8122 55.5523 47.3644 56 46.8122 56C46.2599 56 45.8122 55.5523 45.8122 55V45C45.8122 44.4477 46.2599 44 46.8122 44Z" fill="#49580C" fill-rule="evenodd"/><path clip-rule="evenodd" d="M46.8122 46C47.3644 46 47.8122 46.4477 47.8122 47V49C47.8122 49.5523 47.3644 50 46.8122 50C46.2599 50 45.8122 49.5523 45.8122 49V47C45.8122 46.4477 46.2599 46 46.8122 46Z" fill="#667A12" fill-rule="evenodd"/><path d="M40.5622 60.1613L46.823 55L52.5622 60.1613V71C52.5622 71 48.9376 72 46.5622 72C44.1867 72 40.5622 71 40.5622 71V60.1613Z" fill="#4BEA31"/><path clip-rule="evenodd" d="M46.1869 54.2284C46.5689 53.9135 47.1237 53.9255 47.4917 54.2565L53.2308 59.4177C53.4417 59.6074 53.5622 59.8777 53.5622 60.1613V71C53.5622 71.4499 53.2618 71.8443 52.8281 71.964L52.5622 71V60.1613L46.823 55L40.5622 60.1613V71L40.2962 71.964C39.8625 71.8443 39.5622 71.4499 39.5622 71V60.1613C39.5622 59.8627 39.6956 59.5796 39.9261 59.3897L46.1869 54.2284ZM40.5622 71C40.2962 71.964 40.2961 71.964 40.2962 71.964L40.2975 71.9643L40.3093 71.9676L40.3428 71.9767C40.3718 71.9845 40.4138 71.9957 40.4677 72.0099C40.5755 72.0384 40.7308 72.0786 40.9242 72.1267C41.3106 72.2228 41.8509 72.3509 42.4679 72.4791C43.6828 72.7315 45.2665 73 46.5622 73C47.8579 73 49.4416 72.7315 50.6564 72.4791C51.2734 72.3509 51.8137 72.2228 52.2001 72.1267C52.3935 72.0786 52.5489 72.0384 52.6566 72.0099C52.7105 71.9957 52.7526 71.9845 52.7815 71.9767L52.8151 71.9676L52.8268 71.9643L52.8281 71.964C52.8282 71.964 52.8281 71.964 52.5622 71C52.5622 71 48.9376 72 46.5622 72C44.1867 72 40.5622 71 40.5622 71Z" fill="#1F7810" fill-rule="evenodd"/><path d="M48.4372 59.875C42.7872 61.875 42.2497 66.625 43.8747 67.7812C45.4997 68.9375 47.2803 68.2285 48.2496 65.9375C48.9372 64.3125 48.6871 61.9688 48.4372 59.875Z" fill="#34C71C"/><path clip-rule="evenodd" d="M41.2903 7.23338C41.9898 6.78955 42.9166 6.99682 43.3605 7.69633L42.0939 8.49995C43.3605 7.69633 43.3608 7.6968 43.3611 7.69728L43.3617 7.69826L43.363 7.70035L43.3659 7.705L43.3729 7.71616L43.391 7.74592C43.4049 7.76905 43.4224 7.79874 43.4429 7.83488C43.4838 7.90712 43.537 8.00527 43.5982 8.12821C43.7203 8.37389 43.8748 8.71999 44.0266 9.15753C44.3302 10.0326 44.6249 11.279 44.6249 12.8187C44.6249 14.7704 43.9372 15.8439 43.4165 16.6566C43.4 16.6824 43.3837 16.7079 43.3675 16.7332C43.1231 17.1156 42.9748 17.3683 42.8757 17.6659C42.7828 17.9449 42.7124 18.3334 42.7596 18.9498C42.8337 19.9181 42.9886 20.4287 43.1175 20.7114C43.2334 20.9654 43.357 21.1062 43.5731 21.3239C43.5927 21.3437 43.6141 21.365 43.6372 21.3878C43.8701 21.619 44.266 22.0121 44.5538 22.5998C44.8741 23.254 45.0163 24.0296 45.0231 25.0152C45.0302 26.0474 44.8644 26.8666 44.5375 27.5613C44.2229 28.2298 43.7998 28.6844 43.5171 28.9881L43.5007 29.0058C43.2013 29.3276 43.0688 29.4791 42.9663 29.6874C42.8745 29.8741 42.764 30.2049 42.764 30.8626C42.764 31.571 42.9917 32.1229 43.363 32.9617C43.3716 32.9812 43.3803 33.0009 43.3891 33.0207C43.7438 33.8213 44.2187 34.8931 44.2187 36.2823C44.2187 37.5366 44.0319 38.5082 43.8285 39.1927C43.7271 39.5342 43.622 39.8024 43.5353 39.9971C43.4919 40.0944 43.4532 40.1732 43.4218 40.2337C43.4061 40.2639 43.3922 40.2895 43.3805 40.3105L43.3647 40.3385L43.3581 40.3499L43.3551 40.355L43.353 40.3585C43.3527 40.3591 43.3523 40.3596 42.0626 39.5937L43.3523 40.3596C42.9293 41.0719 42.009 41.3064 41.2967 40.8834C40.592 40.4649 40.355 39.5596 40.7596 38.8506C40.7597 38.8504 40.7596 38.8507 40.7596 38.8506C40.7641 38.842 40.7768 38.8169 40.795 38.7762C40.8313 38.6947 40.8902 38.5488 40.9528 38.3383C41.0774 37.9189 41.2187 37.2348 41.2187 36.2823C41.2187 35.5682 40.99 35.0127 40.6196 34.1759C40.6103 34.1548 40.6008 34.1334 40.5913 34.1119C40.2376 33.3138 39.764 32.245 39.764 30.8626C39.764 29.8489 39.9388 29.0456 40.2743 28.3634C40.5833 27.735 40.9936 27.2954 41.2639 27.0057C41.2777 26.9908 41.2912 26.9764 41.3043 26.9623C41.5896 26.6556 41.7223 26.4979 41.8229 26.284C41.9174 26.0833 42.028 25.7283 42.0232 25.0359C42.0182 24.3137 41.9133 24.0291 41.8594 23.9189C41.8013 23.8004 41.7468 23.7425 41.4438 23.4372C41.1392 23.1304 40.7231 22.6907 40.3881 21.9566C40.0662 21.251 39.8592 20.3658 39.7683 19.1787C39.6944 18.2124 39.796 17.4191 40.0293 16.7183C40.2565 16.0359 40.5885 15.5106 40.8396 15.1177C40.855 15.0936 40.8703 15.0698 40.8853 15.0462C41.3261 14.3578 41.6249 13.891 41.6249 12.8186C41.6249 11.6646 41.4042 10.7516 41.1923 10.1408C41.0863 9.83541 40.983 9.60689 40.9118 9.4637C40.8763 9.3922 40.8489 9.34234 40.8335 9.31519C40.8267 9.3032 40.8223 9.29567 40.8205 9.29272C40.3856 8.5945 40.5944 7.67491 41.2903 7.23338Z" fill="#BEDAFD" fill-rule="evenodd"/><path clip-rule="evenodd" d="M34.5347 10.6717C34.2153 10.2211 33.5911 10.1147 33.1406 10.4341L33.7188 11.25C33.1406 10.4341 33.1403 10.4343 33.1399 10.4345L33.1393 10.435L33.1378 10.436L33.1344 10.4385L33.1254 10.445L33.0997 10.4639C33.0792 10.4792 33.052 10.4999 33.0192 10.5259C32.9535 10.5777 32.8646 10.651 32.7602 10.7446C32.5525 10.931 32.2775 11.2037 32.0016 11.5553C31.4563 12.2502 30.8579 13.3189 30.8579 14.6741C30.8579 16.2115 31.594 17.0645 32.106 17.6578C32.1357 17.6921 32.1646 17.7256 32.1925 17.7583C32.451 18.0605 32.5982 18.2568 32.6852 18.4729C32.761 18.6609 32.8149 18.9279 32.7344 19.3801C32.6337 19.9451 32.478 20.281 32.3271 20.5118C32.1753 20.744 32.0085 20.907 31.7643 21.1455C31.7487 21.1607 31.7329 21.1762 31.7167 21.192C31.4588 21.4443 31.1159 21.7864 30.8604 22.2957C30.601 22.813 30.4666 23.4261 30.4597 24.2058C30.4524 25.0304 30.6237 25.678 30.9459 26.2131C31.2468 26.713 31.6443 27.0467 31.919 27.2773C31.9251 27.2824 31.9311 27.2875 31.9371 27.2925C32.24 27.547 32.3992 27.6875 32.5161 27.8733C32.6143 28.0293 32.7189 28.2814 32.7189 28.7766C32.7189 29.3086 32.4991 29.7319 32.1213 30.399C32.1114 30.4165 32.1013 30.4342 32.0912 30.4522C31.7425 31.0669 31.2641 31.9103 31.2641 33.0124C31.2641 34.174 31.7577 35.0455 32.2225 35.6047C32.4549 35.8843 32.6868 36.0947 32.8631 36.2372C32.9519 36.3089 33.0282 36.3647 33.0857 36.4046C33.1145 36.4246 33.1387 36.4408 33.1577 36.4531L33.182 36.4687L33.1911 36.4743L33.1948 36.4766L33.1964 36.4776L33.1972 36.4781C33.1976 36.4783 33.1979 36.4786 33.6898 35.6726L33.1979 36.4786C33.6694 36.7663 34.2848 36.6173 34.5725 36.1459C34.8586 35.677 34.7128 35.0656 34.2473 34.776C34.2449 34.7744 34.2379 34.7698 34.227 34.7623C34.205 34.747 34.1676 34.7199 34.12 34.6814C34.0236 34.6036 33.8918 34.4842 33.7605 34.3263C33.498 34.0104 33.2641 33.5757 33.2641 33.0124C33.2641 32.476 33.4848 32.0499 33.8617 31.3845C33.8723 31.3657 33.8831 31.3467 33.8939 31.3275C34.2417 30.7146 34.7189 29.8734 34.7189 28.7766C34.7189 27.9656 34.538 27.3312 34.2089 26.8082C33.914 26.3395 33.5292 26.0172 33.2643 25.7953C33.2504 25.7837 33.2368 25.7723 33.2235 25.7612C32.9309 25.5153 32.7731 25.3705 32.6593 25.1816C32.5601 25.0167 32.455 24.7467 32.4596 24.2235C32.4645 23.6684 32.5577 23.3727 32.6482 23.1924C32.7426 23.0041 32.8719 22.8597 33.1151 22.6218C33.1353 22.6021 33.1564 22.5816 33.1783 22.5603C33.4069 22.3383 33.7238 22.0305 34.0013 21.606C34.3158 21.1246 34.561 20.5298 34.7034 19.7309C34.8417 18.9543 34.7725 18.3018 34.5404 17.7256C34.3195 17.1773 33.9741 16.7644 33.7126 16.4586C33.6946 16.4376 33.6769 16.4169 33.6594 16.3965C33.1617 15.8153 32.8579 15.4606 32.8579 14.6741C32.8579 13.9241 33.1899 13.2807 33.575 12.7899C33.7644 12.5486 33.9547 12.3599 34.0959 12.2332C34.1659 12.1704 34.2224 12.1241 34.2585 12.0956C34.2765 12.0814 34.2893 12.0717 34.2961 12.0666L34.3012 12.0629C34.7483 11.7426 34.853 11.1209 34.5347 10.6717Z" fill="#A2C1E7" fill-rule="evenodd"/><path clip-rule="evenodd" d="M52.4874 13.6307C52.4872 13.6309 52.4875 13.6305 52.4874 13.6307C52.766 13.1547 52.607 12.5422 52.1313 12.2627C51.6551 11.9829 51.0423 12.1422 50.7625 12.6184L51.6135 13.1183C50.7625 12.6184 50.7626 12.6181 50.7625 12.6184L50.7612 12.6206L50.7593 12.6238L50.7539 12.6331L50.7366 12.6634C50.7224 12.6887 50.7027 12.724 50.6785 12.7686C50.6302 12.8578 50.5636 12.9848 50.4858 13.1439C50.3305 13.4614 50.1283 13.9114 49.9368 14.4492C49.5606 15.5059 49.1935 16.9896 49.3825 18.4991C49.5548 19.8763 50.2428 20.972 50.7913 21.8457C50.8423 21.9269 50.8921 22.0063 50.9402 22.0837C51.5415 23.0526 51.9231 23.7875 51.876 24.6983C51.8322 25.548 51.4237 26.2084 50.8258 27.1026C50.8049 27.1338 50.7837 27.1654 50.7623 27.1973C50.2085 28.0237 49.5031 29.0762 49.3786 30.4737C49.2505 31.9129 49.7521 33.2105 50.229 34.0964C50.4721 34.5482 50.7219 34.9171 50.912 35.1748C51.0075 35.3041 51.0889 35.4068 51.1484 35.4793C51.1782 35.5156 51.2025 35.5444 51.2205 35.5653L51.2426 35.5908L51.2498 35.599L51.2524 35.6019L51.2535 35.6031C51.2537 35.6034 51.2544 35.6041 51.9997 34.9374L51.2544 35.6041C51.6226 36.0158 52.2548 36.0509 52.6664 35.6827C53.0779 35.3146 53.1132 34.6828 52.7454 34.2711L52.7379 34.2624C52.7291 34.2522 52.7143 34.2347 52.6944 34.2104C52.6545 34.1618 52.5944 34.0863 52.5213 33.9872C52.3744 33.7882 52.179 33.4996 51.9901 33.1485C51.6026 32.4287 51.2917 31.5388 51.3708 30.6511C51.4476 29.7879 51.8818 29.1214 52.4883 28.2143L52.5079 28.1851C53.0756 27.3363 53.7983 26.2558 53.8734 24.8015C53.9555 23.2108 53.2427 22.0009 52.6395 21.0291C52.5999 20.9652 52.5608 20.9024 52.5222 20.8405C51.9382 19.9027 51.482 19.1701 51.367 18.2507C51.2337 17.1862 51.4917 16.0449 51.8209 15.1201C51.9822 14.6672 52.1529 14.2873 52.2824 14.0226C52.3469 13.8906 52.4007 13.7884 52.4371 13.7212C52.4552 13.6877 52.469 13.663 52.4776 13.6478L52.4865 13.6322L52.4874 13.6307Z" fill="#A2C1E7" fill-rule="evenodd"/></svg>