<?xml version="1.0" ?><svg data-name="Layer 1" id="Layer_1" viewBox="0 0 272 272" xmlns="http://www.w3.org/2000/svg"><defs><style>.cls-1{fill:#efefef;}.cls-2{fill:#ffd54f;}.cls-3{fill:#f3f4f2;}</style></defs><title/><path class="cls-1" d="M72,264H184a24,24,0,0,0,24-24V23A15,15,0,0,0,193,8H48V240A24,24,0,0,0,72,264Z"/><polygon class="cls-1" points="48 56 16 8 48 8 48 56"/><path class="cls-1" d="M234.75,48H200V64h34.75A13.27,13.27,0,0,1,248,77.25v93.5A13.27,13.27,0,0,1,234.75,184H200v16h34.75A29.25,29.25,0,0,0,264,170.75V77.25A29.25,29.25,0,0,0,234.75,48Z"/><path class="cls-2" d="M56,64V227.2a24,24,0,0,0,24,24h96a24,24,0,0,0,24-24V64Z"/><rect class="cls-3" height="144" rx="4" ry="4" width="8" x="176" y="40"/><rect class="cls-3" height="32" rx="4" ry="4" width="8" x="176" y="192"/><rect class="cls-1" height="23.07" rx="4" ry="4" transform="translate(-30.58 29.44) rotate(-15)" width="23.07" x="85" y="119.31"/><rect class="cls-1" height="23.07" rx="4" ry="4" transform="matrix(0.97, 0.26, -0.26, 0.97, 41.03, -33.97)" width="23.07" x="138" y="127.31"/><rect class="cls-1" height="23.07" rx="4" ry="4" transform="translate(-22 18.07) rotate(-7.68)" width="23.07" x="112" y="161.31"/></svg>